<svg width="220" height="286" viewBox="0 0 220 286" fill="none" xmlns="http://www.w3.org/2000/svg">
<path d="M219.067 0.787781L99.6395 133.145L202.537 141.71L101.594 213.241L0.651062 284.773L137.971 166.981L19.9042 156.503L219.067 0.787781Z" fill="url(#paint0_linear_242_682)" stroke="#D97706" stroke-width="2"/>
<path opacity="0.2" d="M111.328 204.4C142.702 204.4 168.136 179.32 168.136 148.382C168.136 117.444 142.702 92.3644 111.328 92.3644C79.9543 92.3644 54.5205 117.444 54.5205 148.382C54.5205 179.32 79.9543 204.4 111.328 204.4Z" fill="black"/>
<path d="M111.328 201.599C141.918 201.599 166.716 177.146 166.716 146.982C166.716 116.817 141.918 92.3644 111.328 92.3644C80.7386 92.3644 55.9407 116.817 55.9407 146.982C55.9407 177.146 80.7386 201.599 111.328 201.599Z" fill="#0F172A" stroke="#1E293B" stroke-width="4"/>
<path d="M111.328 195.997C138.781 195.997 161.035 174.052 161.035 146.982C161.035 119.911 138.781 97.9662 111.328 97.9662C83.876 97.9662 61.6215 119.911 61.6215 146.982C61.6215 174.052 83.876 195.997 111.328 195.997Z" stroke="#334155" stroke-width="3"/>
<path d="M105.648 122.474L104.227 99.3667C108.961 96.099 113.695 96.099 118.429 99.3667L117.009 122.474H105.648Z" fill="#1E293B" stroke="#334155"/>
<path d="M135.705 154.386L156.698 164.71C157.194 170.39 154.822 174.438 149.582 176.855L130.013 164.102L135.705 154.386Z" fill="#1E293B" stroke="#334155"/>
<path d="M92.6436 164.102L73.0744 176.855C67.8347 174.438 65.4629 170.39 65.959 164.71L86.9513 154.386L92.6436 164.102Z" fill="#1E293B" stroke="#334155"/>
<path d="M111.328 172.19C125.447 172.19 136.892 160.904 136.892 146.982C136.892 133.06 125.447 121.774 111.328 121.774C97.21 121.774 85.7648 133.06 85.7648 146.982C85.7648 160.904 97.21 172.19 111.328 172.19Z" fill="#0F172A" stroke="#1E293B" stroke-width="3"/>
<path d="M111.328 167.988C123.094 167.988 132.631 158.583 132.631 146.982C132.631 135.38 123.094 125.975 111.328 125.975C99.5631 125.975 90.0254 135.38 90.0254 146.982C90.0254 158.583 99.5631 167.988 111.328 167.988Z" fill="#2F3F59"/>
<path d="M120.651 131.773L110.151 146.773H120.651L105.651 161.773L116.151 146.773H105.651L120.651 131.773Z" fill="#FBBF24"/>
<path d="M118.429 92.3644H104.227C103.443 92.3644 102.807 92.9914 102.807 93.7649V96.5658C102.807 97.3392 103.443 97.9662 104.227 97.9662H118.429C119.214 97.9662 119.85 97.3392 119.85 96.5658V93.7649C119.85 92.9914 119.214 92.3644 118.429 92.3644Z" fill="#FBBF24"/>
<path d="M116.299 93.765H106.358C105.966 93.765 105.648 94.0785 105.648 94.4652V95.8656C105.648 96.2523 105.966 96.5658 106.358 96.5658H116.299C116.691 96.5658 117.009 96.2523 117.009 95.8656V94.4652C117.009 94.0785 116.691 93.765 116.299 93.765Z" fill="#FDE68A"/>
<path d="M162.845 125.743L155.737 113.609C155.345 112.939 154.477 112.709 153.799 113.095L151.343 114.492C150.665 114.878 150.433 115.734 150.826 116.404L157.934 128.537C158.326 129.208 159.194 129.438 159.873 129.052L162.328 127.655C163.006 127.269 163.238 126.413 162.845 125.743Z" fill="#FBBF24"/>
<path d="M160.551 124.621L155.576 116.129C155.38 115.794 154.946 115.678 154.607 115.871L153.379 116.57C153.04 116.763 152.924 117.191 153.121 117.526L158.095 126.018C158.292 126.353 158.725 126.469 159.064 126.276L160.292 125.577C160.631 125.384 160.747 124.956 160.551 124.621Z" fill="#FDE68A"/>
<path d="M155.737 180.354L162.845 168.22C163.238 167.55 163.006 166.694 162.328 166.308L159.873 164.911C159.194 164.525 158.326 164.756 157.934 165.426L150.826 177.559C150.433 178.229 150.665 179.085 151.343 179.471L153.799 180.868C154.477 181.254 155.345 181.024 155.737 180.354Z" fill="#FBBF24"/>
<path d="M155.576 177.835L160.551 169.342C160.747 169.007 160.631 168.579 160.292 168.386L159.064 167.688C158.725 167.495 158.292 167.61 158.095 167.945L153.121 176.438C152.924 176.773 153.04 177.201 153.379 177.393L154.607 178.092C154.946 178.285 155.38 178.17 155.576 177.835Z" fill="#FDE68A"/>
<path d="M104.227 201.599H118.429C119.214 201.599 119.85 200.972 119.85 200.198V197.397C119.85 196.624 119.214 195.997 118.429 195.997H104.227C103.443 195.997 102.807 196.624 102.807 197.397V200.198C102.807 200.972 103.443 201.599 104.227 201.599Z" fill="#FBBF24"/>
<path d="M106.358 200.198H116.299C116.691 200.198 117.009 199.885 117.009 199.498V198.098C117.009 197.711 116.691 197.397 116.299 197.397H106.358C105.966 197.397 105.648 197.711 105.648 198.098V199.498C105.648 199.885 105.966 200.198 106.358 200.198Z" fill="#FDE68A"/>
<path d="M59.8115 168.22L66.9194 180.354C67.312 181.024 68.1799 181.254 68.858 180.868L71.3137 179.471C71.9918 179.085 72.2233 178.229 71.8308 177.559L64.7228 165.426C64.3303 164.756 63.4623 164.525 62.7842 164.911L60.3285 166.308C59.6504 166.694 59.4189 167.55 59.8115 168.22Z" fill="#FBBF24"/>
<path d="M62.1061 169.342L67.0808 177.835C67.2771 178.17 67.711 178.285 68.05 178.092L69.2776 177.393C69.6166 177.2 69.7323 176.772 69.5361 176.437L64.5614 167.945C64.3651 167.61 63.9312 167.495 63.5922 167.688L62.3646 168.386C62.0256 168.579 61.9099 169.007 62.1061 169.342Z" fill="#FDE68A"/>
<path d="M66.9194 113.609L59.8115 125.743C59.4189 126.413 59.6504 127.269 60.3285 127.655L62.7842 129.052C63.4623 129.438 64.3303 129.208 64.7228 128.538L71.8308 116.404C72.2233 115.734 71.9918 114.878 71.3137 114.492L68.858 113.095C68.1799 112.709 67.312 112.939 66.9194 113.609Z" fill="#FBBF24"/>
<path d="M67.0809 116.129L62.1062 124.621C61.9099 124.956 62.0256 125.384 62.3646 125.577L63.5923 126.276C63.9313 126.469 64.3652 126.353 64.5614 126.018L69.5361 117.526C69.7324 117.191 69.6166 116.763 69.2776 116.57L68.05 115.871C67.711 115.678 67.2771 115.794 67.0809 116.129Z" fill="#FDE68A"/>
<defs>
<linearGradient id="paint0_linear_242_682" x1="67.1251" y1="81.7595" x2="67.1251" y2="21998.6" gradientUnits="userSpaceOnUse">
<stop stop-color="#FBBF24"/>
<stop offset="1" stop-color="#F59E0B"/>
</linearGradient>
</defs>
</svg>
