<svg width="50" height="50" viewBox="0 0 50 50" fill="none" xmlns="http://www.w3.org/2000/svg">
<g clip-path="url(#clip0_38_27)">
<circle cx="25" cy="25" r="25" fill="#D9D9D9"/>
<path d="M14.9414 28.5156C17.8711 36.5234 26.4648 37.793 31.6406 34.375H37.6953V39.0625C35.5385 40.9072 32.9911 42.2382 30.2451 42.9552C27.4992 43.6722 24.6262 43.7565 21.8429 43.2017C19.0596 42.6469 16.4386 41.4676 14.1773 39.7525C11.9161 38.0374 10.0737 35.8314 8.78906 33.3008" fill="#34A853"/>
<path d="M37.6953 39.0625C39.8192 37.0878 41.4388 34.3849 42.3575 31.2819C43.2763 28.1789 43.4547 24.8093 42.8711 21.582H25.3906V28.8086H35.3516C34.8958 31.2174 33.6589 33.0729 31.6406 34.375" fill="#4285F4"/>
<path d="M8.78906 33.3008C7.50525 30.6904 6.83937 27.8387 6.83937 24.9512C6.83937 22.0636 7.50525 19.212 8.78906 16.6016L14.9414 21.3867C14.1602 23.7956 14.1602 26.1719 14.9414 28.5156" fill="#FBBC02"/>
<path d="M14.9414 21.3867C17.0898 14.6484 26.2695 10.7422 32.4219 16.5039L37.793 11.2305C30.1758 3.90625 15.332 4.19921 8.78906 16.6016" fill="#EA4335"/>
</g>
<defs>
<clipPath id="clip0_38_27">
<rect width="50" height="50" rx="25" fill="white"/>
</clipPath>
</defs>
</svg>
