<svg width="60" height="60" viewBox="0 0 60 60" fill="none" xmlns="http://www.w3.org/2000/svg">
<path d="M28.5985 41.1983C28.4485 41.5796 28.3048 41.9671 28.1485 42.3671C29.7235 40.6296 30.936 39.2171 32.6923 37.1171C32.4985 37.1233 32.3298 37.1233 32.1673 37.1296C31.5048 37.1483 31.0235 37.1608 30.1548 37.1108C30.0235 37.1046 29.8923 37.0358 29.811 36.9296C29.6735 36.7483 29.6923 36.5858 29.761 36.1546C29.7923 35.9233 29.8485 35.5921 29.9235 35.1671C30.0173 34.6296 30.1423 33.9483 30.2923 33.1421C29.3048 34.6108 27.8298 36.7921 26.911 38.0983C27.0798 38.0921 27.236 38.0921 27.3923 38.0858C27.6985 38.0733 28.011 38.0671 28.3798 38.0671C28.6173 38.0671 28.8735 38.0671 29.1673 38.0796C29.3235 38.0858 29.4673 38.1671 29.5485 38.2983C29.6298 38.4296 29.6423 38.5921 29.5798 38.7358C29.2798 39.4046 28.9485 40.2796 28.5985 41.1983Z" fill="#FBBF24"/>
<path d="M33.0094 35.942C32.7031 35.9482 32.4469 35.9545 32.2156 35.9545C31.7094 35.967 31.3156 35.9732 30.7656 35.9545C30.8406 35.4857 31.0094 34.5107 31.3844 32.5045C31.4594 32.117 31.2531 31.742 30.8906 31.5982C30.5281 31.4482 30.1219 31.5732 29.9031 31.8982C28.9031 33.392 27.0781 36.1045 26.0781 37.5045C25.8969 37.7545 25.8781 38.0857 26.0219 38.3607C26.1656 38.6357 26.4469 38.8045 26.7594 38.7982C27.0219 38.7982 27.2594 38.7857 27.4906 38.7795C27.8219 38.767 28.1406 38.7607 28.5156 38.7607C28.2844 39.3232 28.0406 39.967 27.7906 40.6295C27.5781 41.1982 27.3531 41.7857 27.1094 42.3857C26.9594 42.7607 27.0969 43.167 27.4344 43.3795C27.5719 43.467 27.7219 43.5045 27.8719 43.5045C28.0906 43.5045 28.3094 43.4107 28.4719 43.2357C30.3281 41.1982 31.6219 39.692 33.6531 37.2732C33.8594 37.0232 33.9031 36.692 33.7656 36.3982C33.6219 36.117 33.3344 35.9357 33.0094 35.942ZM28.2094 42.1357C28.3656 41.7357 28.5094 41.3482 28.6594 40.967C29.0094 40.0482 29.3406 39.1732 29.6406 38.5045C29.7031 38.3607 29.6906 38.1982 29.6094 38.067C29.5281 37.9357 29.3844 37.8545 29.2281 37.8482C28.9344 37.8357 28.6781 37.8357 28.4406 37.8357C28.0719 37.8357 27.7594 37.842 27.4531 37.8545C27.2969 37.8607 27.1406 37.8607 26.9719 37.867C27.8906 36.5607 29.3656 34.3795 30.3531 32.9107C30.2031 33.717 30.0781 34.3982 29.9844 34.9357C29.9094 35.3607 29.8531 35.692 29.8219 35.9232C29.7531 36.3545 29.7344 36.517 29.8719 36.6982C29.9531 36.8045 30.0844 36.8732 30.2156 36.8795C31.0844 36.9295 31.5656 36.917 32.2281 36.8982C32.3906 36.892 32.5594 36.892 32.7531 36.8857C30.9969 38.9857 29.7844 40.3982 28.2094 42.1357ZM51.8969 26.0732C53.9031 29.4295 54.9781 33.3857 54.9969 37.5232C54.9969 37.7795 54.7906 37.992 54.5281 37.992C54.2719 37.992 54.0594 37.7857 54.0594 37.5232C54.0406 33.5545 53.0156 29.7607 51.0906 26.5482C50.6281 25.7732 50.1156 25.0107 49.5719 24.2857C49.4156 24.0795 49.4594 23.7857 49.6656 23.6295C49.8719 23.4732 50.1656 23.517 50.3219 23.7232C50.8844 24.4795 51.4094 25.267 51.8969 26.0732ZM21.8906 15.0295C15.1406 17.1107 10.0094 21.9357 7.44688 28.6107C6.36563 31.417 5.86563 34.4357 5.94688 37.5795C5.95313 37.8357 5.74688 38.0545 5.49063 38.0607C5.48438 38.0607 5.48438 38.0607 5.47813 38.0607C5.22813 38.0607 5.01563 37.8607 5.00938 37.6045C4.92188 34.3357 5.44688 31.1982 6.57188 28.2732C9.24063 21.3232 14.5844 16.3045 21.6156 14.1295C29.2844 11.7607 37.9281 13.167 44.7469 17.8857C44.9594 18.0357 45.0156 18.3232 44.8656 18.5357C44.7156 18.7482 44.4281 18.8045 44.2156 18.6545C37.6344 14.1045 29.2906 12.742 21.8906 15.0295ZM51.3781 18.0482C51.5094 17.867 51.4969 17.617 51.3469 17.4545C51.1969 17.292 50.9469 17.2545 50.7594 17.3732C47.5531 19.3295 44.0469 21.4795 40.5219 23.6357C37.4031 25.5482 34.2719 27.467 31.3281 29.2732C31.0906 29.2295 30.8594 29.192 30.6156 29.167C29.3156 29.0295 28.0094 29.2232 26.7406 29.7295C23.5969 30.9982 21.4156 34.2482 21.4281 37.642C21.4469 41.0295 23.6594 44.2607 26.8094 45.5045C27.7719 45.8857 28.8031 46.067 29.8281 46.067C32.1594 46.067 34.4969 45.1295 36.1031 43.4107C37.5844 41.8357 38.3906 39.6607 38.2719 37.6107C38.2469 37.1857 38.1906 36.7607 38.1094 36.3482C40.0594 33.6857 42.0844 30.867 44.0469 28.142C46.4844 24.7607 48.9969 21.267 51.3781 18.0482ZM35.4281 42.767C34.4406 43.8232 33.0656 44.592 31.5719 44.9295C30.0781 45.267 28.5094 45.1607 27.1594 44.6295C25.8094 44.0982 24.5906 43.1107 23.7219 41.8482C22.8531 40.5795 22.3719 39.0857 22.3656 37.642C22.3594 36.192 22.8281 34.692 23.6844 33.4232C24.5406 32.1482 25.7531 31.1482 27.0906 30.6045C28.4719 30.0482 29.8906 29.9232 31.2531 30.217C31.2906 30.2295 31.3219 30.2357 31.3594 30.242C32.1281 30.4232 32.8719 30.7357 33.5781 31.1795C35.4031 32.3357 36.6844 34.2045 37.1531 36.3357C37.1531 36.342 37.1531 36.3482 37.1594 36.3545C37.2531 36.7795 37.3156 37.217 37.3406 37.6607C37.4469 39.467 36.7344 41.3732 35.4281 42.767ZM37.8031 35.1795C37.1406 33.2045 35.8344 31.4982 34.0781 30.3857C33.5906 30.0732 33.0781 29.8232 32.5531 29.6232C35.2844 27.9545 38.1531 26.192 41.0156 24.4357C43.8031 22.7295 46.5844 21.0232 49.2094 19.417C47.2594 22.0795 45.2469 24.8732 43.2969 27.592C41.4781 30.1045 39.6156 32.6982 37.8031 35.1795ZM29.6281 15.517L29.6594 18.9732C29.6594 19.2295 29.4531 19.442 29.1969 19.4482C29.1969 19.4482 29.1969 19.4482 29.1906 19.4482C28.9344 19.4482 28.7219 19.242 28.7219 18.9857L28.6906 15.5295C28.6906 15.2732 28.8969 15.0607 29.1531 15.0545C29.1531 15.0545 29.1531 15.0545 29.1594 15.0545C29.4156 15.0545 29.6281 15.2607 29.6281 15.517ZM16.6844 24.5295C16.8719 24.7107 16.8719 25.0045 16.6906 25.192C16.5969 25.2857 16.4781 25.3295 16.3531 25.3295C16.2344 25.3295 16.1156 25.2857 16.0219 25.1982L13.5531 22.7795C13.3656 22.5982 13.3656 22.3045 13.5469 22.117C13.7281 21.9295 14.0219 21.9295 14.2094 22.1107L16.6844 24.5295ZM11.9094 38.0982C11.9094 38.3545 11.7031 38.567 11.4469 38.5732L7.99063 38.6045C7.99063 38.6045 7.99063 38.6045 7.98438 38.6045C7.72813 38.6045 7.51563 38.3982 7.51563 38.142C7.51563 37.8857 7.72188 37.6732 7.97813 37.667L11.4344 37.6357C11.4344 37.6357 11.4344 37.6357 11.4406 37.6357C11.6969 37.6357 11.9094 37.842 11.9094 38.0982ZM52.3594 38.0982C52.3594 38.3545 52.1531 38.567 51.8969 38.5732L48.4406 38.6045C48.4406 38.6045 48.4406 38.6045 48.4344 38.6045C48.1781 38.6045 47.9656 38.3982 47.9656 38.142C47.9656 37.8857 48.1719 37.6732 48.4281 37.667L51.8844 37.6357C51.8844 37.6357 51.8844 37.6357 51.8906 37.6357C52.1469 37.6357 52.3531 37.842 52.3594 38.0982Z" fill="#6A7B94"/>
</svg>
